<svg height="30px" width="30px" version="1.1" id="Layer_1" xmlns="http://www.w3.org/2000/svg" 
xmlns:xlink="http://www.w3.org/1999/xlink" viewBox="0 0 512 512" xml:space="preserve" fill="#000000" 
transform="rotate(45)"><g id="SVGRepo_bgCarrier" stroke-width="0"></g><g id="SVGRepo_tracerCarrier" 
stroke-linecap="round" stroke-linejoin="round"></g><g id="SVGRepo_iconCarrier"> 
<circle style="fill:#4c2897;" cx="255.996" cy="255.997" r="255.996"></circle> 
<path 
style="fill:#4c2897;" 
d="M512,256c0-22.914-3.028-45.118-8.675-66.252L410.267,96.51l0,0 c-16.814-16.814-44.327-16.814-61.141,0l-44.544,44.544l-153.486-44.78l-37.754,37.754l99.676,98.589l-49.881,49.881L94.963,279.3 l-55.044,55.044l132.33,130.719l0.183,1.794l41.717,41.718c13.621,2.24,27.596,3.424,41.852,3.424C397.385,512,512,397.385,512,256z ">
</path> 
<path 
style="fill:#FFFFFF;" 
d="M372.746,393.436l37.755-37.755l-44.778-153.486l44.544-44.544c16.814-16.814,16.814-44.328,0-61.141 l0,0c-16.814-16.814-44.327-16.814-61.141,0l-44.544,44.544L151.095,96.275l-37.755,37.755l121.235,77.03l-71.44,71.44 l-68.173-3.198l-55.044,55.044l120.28,12.233l12.233,120.28l55.044-55.044l-3.198-68.173l71.44-71.44L372.746,393.436z">
</path> 
<path style="fill:#FFFFFF;" 
d="M410.501,355.681l-44.778-153.486l44.544-44.544c16.814-16.814,16.814-44.328,0-61.141l0,0 c-0.001-0.001-0.001-0.001-0.002-0.002L160.193,346.578l0.004,0.001l12.233,120.28l55.045-55.044l-3.198-68.173l71.44-71.44 l77.03,121.235L410.501,355.681z">
</path> 
</g>
</svg>